ffmpeg started on 2016-12-12 at 05:01:09
Report written to "Output/theora/results/ffmpeg/Tcrowd_run_2160p504500k.log"
Command line:
Tools/ffmpeg/ffmpeg -i Output/theora/encoded/crowd_run_2160p504500k.mkv -c:v rawvideo -pix_fmt yuv420p Output/theora/transcoded/crowd_run_2160p504500k.yuv
ffmpeg version N-82227-gdb23fde Copyright (c) 2000-2016 the FFmpeg developers
  built with gcc 5.4.0 (Ubuntu 5.4.0-6ubuntu1~16.04.2) 20160609
  configuration: --prefix=/home/jaroslav/ffmpeg_build --pkg-config-flags=--static --extra-cflags=-I/home/jaroslav/ffmpeg_build/include --extra-ldflags=-L/home/jaroslav/ffmpeg_build/lib --bindir=/home/jaroslav/bin --enable-gpl --enable-libass --enable-libfdk-aac --enable-libfreetype --enable-libmp3lame --enable-libopus --enable-libtheora --enable-libvorbis --enable-libvpx --enable-libx264 --enable-libx265 --enable-nvenc --enable-libmfx --enable-libxvid --enable-libgsm --enable-libopencore-amrnb --enable-version3 --enable-nonfree
  libavutil      55. 35.100 / 55. 35.100
  libavcodec     57. 66.101 / 57. 66.101
  libavformat    57. 57.100 / 57. 57.100
  libavdevice    57.  2.100 / 57.  2.100
  libavfilter     6. 66.100 /  6. 66.100
  libswscale      4.  3.100 /  4.  3.100
  libswresample   2.  4.100 /  2.  4.100
  libpostproc    54.  2.100 / 54.  2.100
Input #0, matroska,webm, from 'Output/theora/encoded/crowd_run_2160p504500k.mkv':
  Metadata:
    ENCODER         : Lavf57.57.100
  Duration: 00:00:10.00, start: 0.000000, bitrate: 4909 kb/s
    Stream #0:0: Video: theora, yuv420p(progressive), 3840x2160 [SAR 1:1 DAR 16:9], 50 fps, 50 tbr, 1k tbn, 50 tbc (default)
    Metadata:
      ENCODER         : Lavc57.66.101 libtheora
      DURATION        : 00:00:10.000000000
Output #0, rawvideo, to 'Output/theora/transcoded/crowd_run_2160p504500k.yuv':
  Metadata:
    encoder         : Lavf57.57.100
    Stream #0:0: Video: rawvideo (I420 / 0x30323449), yuv420p, 3840x2160 [SAR 1:1 DAR 16:9], q=2-31, 200 kb/s, 50 fps, 50 tbn, 50 tbc (default)
    Metadata:
      DURATION        : 00:00:10.000000000
      encoder         : Lavc57.66.101 rawvideo
Stream mapping:
  Stream #0:0 -> #0:0 (theora (native) -> rawvideo (native))
Press [q] to stop, [?] for help
frame=   25 fps=0.0 q=-0.0 size=  303750kB time=00:00:00.50 bitrate=4976640.0kbits/s dup=8 drop=0 speed=0.762x    frame=   61 fps= 41 q=-0.0 size=  741150kB time=00:00:01.22 bitrate=4976640.0kbits/s dup=41 drop=0 speed=0.823x    frame=   85 fps= 39 q=-0.0 size= 1032750kB time=00:00:01.70 bitrate=4976640.0kbits/s dup=63 drop=0 speed=0.776x    frame=   97 fps= 34 q=-0.0 size= 1178550kB time=00:00:01.94 bitrate=4976640.0kbits/s dup=73 drop=0 speed=0.676x    frame=  133 fps= 37 q=-0.0 size= 1615950kB time=00:00:02.66 bitrate=4976640.0kbits/s dup=106 drop=0 speed=0.738x    frame=  157 fps= 36 q=-0.0 size= 1907550kB time=00:00:03.14 bitrate=4976640.0kbits/s dup=128 drop=0 speed=0.728x    frame=  181 fps= 36 q=-0.0 size= 2199150kB time=00:00:03.62 bitrate=4976640.0kbits/s dup=150 drop=0 speed=0.721x    frame=  205 fps= 36 q=-0.0 size= 2490750kB time=00:00:04.10 bitrate=4976640.0kbits/s dup=172 drop=0 speed=0.716x    frame=  229 fps= 36 q=-0.0 size= 2782350kB time=00:00:04.58 bitrate=4976640.0kbits/s dup=194 drop=0 speed=0.711x    frame=  252 fps= 35 q=-0.0 size= 3061800kB time=00:00:05.04 bitrate=4976640.0kbits/s dup=215 drop=0 speed=0.705x    frame=  277 fps= 35 q=-0.0 size= 3365550kB time=00:00:05.54 bitrate=4976640.0kbits/s dup=237 drop=0 speed=0.697x    frame=  301 fps= 34 q=-0.0 size= 3657150kB time=00:00:06.02 bitrate=4976640.0kbits/s dup=259 drop=0 speed=0.679x    frame=  325 fps= 34 q=-0.0 size= 3948750kB time=00:00:06.50 bitrate=4976640.0kbits/s dup=281 drop=0 speed=0.671x    frame=  349 fps= 33 q=-0.0 size= 4240350kB time=00:00:06.98 bitrate=4976640.0kbits/s dup=303 drop=0 speed=0.661x    frame=  361 fps= 32 q=-0.0 size= 4386150kB time=00:00:07.22 bitrate=4976640.0kbits/s dup=314 drop=0 speed=0.638x    frame=  385 fps= 32 q=-0.0 size= 4677750kB time=00:00:07.70 bitrate=4976640.0kbits/s dup=336 drop=0 speed=0.633x    frame=  409 fps= 31 q=-0.0 size= 4969350kB time=00:00:08.18 bitrate=4976640.0kbits/s dup=358 drop=0 speed=0.628x    frame=  419 fps= 30 q=-0.0 size= 5090850kB time=00:00:08.38 bitrate=4976640.0kbits/s dup=367 drop=0 speed=0.605x    frame=  445 fps= 30 q=-0.0 size= 5406750kB time=00:00:08.90 bitrate=4976640.0kbits/s dup=390 drop=0 speed=0.604x    frame=  469 fps= 30 q=-0.0 size= 5698350kB time=00:00:09.38 bitrate=4976640.0kbits/s dup=412 drop=0 speed=0.602x    frame=  493 fps= 30 q=-0.0 size= 5989950kB time=00:00:09.86 bitrate=4976640.0kbits/s dup=434 drop=0 speed= 0.6x    frame=  503 fps= 29 q=-0.0 Lsize= 6111450kB time=00:00:10.06 bitrate=4976640.0kbits/s dup=444 drop=0 speed=0.583x    
video:6111450kB audio:0kB subtitle:0kB other streams:0kB global headers:0kB muxing overhead: 0.000000%
